<?xml version="1.0" encoding="UTF-8"?>
<!DOCTYPE svg PUBLIC "-//W3C//DTD SVG 1.1//EN" "http://www.w3.org/Graphics/SVG/1.1/DTD/svg11.dtd">
<!-- Creator: CorelDRAW -->
<svg xmlns="http://www.w3.org/2000/svg" xml:space="preserve" width="6.72in" height="6.72in" style="shape-rendering:geometricPrecision; text-rendering:geometricPrecision; image-rendering:optimizeQuality; fill-rule:evenodd; clip-rule:evenodd"
viewBox="0 0 6.72 6.72"
 xmlns:xlink="http://www.w3.org/1999/xlink">
 <defs>
  <style type="text/css">
   <![CDATA[
    .fil4 {fill:none}
    .fil0 {fill:url(#id0);fill-rule:nonzero}
    .fil2 {fill:url(#id1);fill-rule:nonzero}
    .fil3 {fill:url(#id2);fill-rule:nonzero}
    .fil1 {fill:url(#id3);fill-rule:nonzero}
   ]]>
  </style>
  <linearGradient id="id0" gradientUnits="userSpaceOnUse" x1="0.900551" y1="3.52147" x2="5.81945" y2="3.52147">
   <stop offset="0" style="stop-color:#321B71"/>
   <stop offset="1" style="stop-color:#3093B0"/>
  </linearGradient>
  <linearGradient id="id1" gradientUnits="userSpaceOnUse" xlink:href="#id0" x1="1.81553" y1="1.25533" x2="1.97553" y2="1.25533">
  </linearGradient>
  <linearGradient id="id2" gradientUnits="userSpaceOnUse" xlink:href="#id0" x1="2.30367" y1="4.06533" x2="4.52139" y2="4.06533">
  </linearGradient>
  <linearGradient id="id3" gradientUnits="userSpaceOnUse" xlink:href="#id0" x1="0.980551" y1="2.6221" x2="5.73945" y2="2.6221">
  </linearGradient>
 </defs>
 <g id="Layer_x0020_1">
  <metadata id="CorelCorpID_0Corel-Layer"/>
  <path class="fil0" d="M1.35542 1.12294l4.00917 0c0.125165,0 0.238909,0.0511535 0.321311,0.133551 0.0824055,0.0824055 0.133555,0.196146 0.133555,0.321311l0 3.88733c0,0.125165 -0.0511496,0.238906 -0.133555,0.321311 -0.0824055,0.0824055 -0.196146,0.133555 -0.321311,0.133555l-4.00917 0c-0.125165,0 -0.238906,-0.0511496 -0.321311,-0.133555 -0.0824055,-0.0824055 -0.133555,-0.196146 -0.133555,-0.321311l0 -3.88733c0,-0.125165 0.0511496,-0.238906 0.133555,-0.321311 0.0824016,-0.0823976 0.196146,-0.133551 0.321311,-0.133551zm4.00917 0.16l-4.00917 0c-0.081,0 -0.154705,0.0332008 -0.208185,0.0866772 -0.0534803,0.0534803 -0.0866811,0.127185 -0.0866811,0.208185l0 3.88733c0,0.081 0.0332008,0.154705 0.0866811,0.208185 0.0534803,0.0534803 0.127185,0.0866811 0.208185,0.0866811l4.00917 0c0.081,0 0.154705,-0.0332008 0.208185,-0.0866811 0.0534803,-0.0534803 0.0866811,-0.127185 0.0866811,-0.208185l0 -3.88733c0,-0.081 -0.0332008,-0.154705 -0.0866811,-0.208185 -0.0534803,-0.0534764 -0.127185,-0.0866772 -0.208185,-0.0866772z"/>
  <polygon class="fil1" points="0.980551,2.5421 5.73945,2.5421 5.73945,2.7021 0.980551,2.7021 "/>
  <path class="fil2" d="M1.97553 0.88c0,-0.0441811 -0.0358189,-0.08 -0.08,-0.08 -0.0441811,0 -0.08,0.0358189 -0.08,0.08l0 0.750661c0,0.0441811 0.0358189,0.08 0.08,0.08 0.0441811,0 0.08,-0.0358189 0.08,-0.08l0 -0.750661z"/>
  <path class="fil2" d="M4.90447 0.88c0,-0.0441811 -0.0358189,-0.08 -0.08,-0.08 -0.0441811,0 -0.08,0.0358189 -0.08,0.08l0 0.750661c0,0.0441811 0.0358189,0.08 0.08,0.08 0.0441811,0 0.08,-0.0358189 0.08,-0.08l0 -0.750661z"/>
  <path class="fil3" d="M2.30367 4.47574l0.219685 -0.0291811c0.0254291,0.124642 0.0683661,0.214268 0.128811,0.269295 0.0608622,0.0550276 0.13465,0.0825394 0.221776,0.0825394 0.103382,0 0.190921,-0.0358504 0.262205,-0.107551 0.0708701,-0.0717008 0.10672,-0.160492 0.10672,-0.266378 0,-0.100882 -0.0329331,-0.184252 -0.0987992,-0.249701 -0.0662795,-0.0654488 -0.150071,-0.0983819 -0.251787,-0.0983819 -0.041685,0 -0.093378,0.00833858 -0.155071,0.0245984l0.0245945 -0.193012c0.0145906,0.00166929 0.0262638,0.00250394 0.0354331,0.00250394 0.093378,0 0.177583,-0.0245945 0.252618,-0.0733701 0.0750394,-0.0487717 0.112555,-0.124224 0.112555,-0.225941 0,-0.0804528 -0.0275118,-0.147571 -0.082122,-0.200094 -0.0546102,-0.0529409 -0.125059,-0.079622 -0.21135,-0.079622 -0.0854567,0 -0.15674,0.0270984 -0.213433,0.0804567 -0.0571142,0.0537756 -0.0937953,0.134646 -0.110055,0.242197l-0.219685 -0.039185c0.0266772,-0.147571 0.0879567,-0.261791 0.183,-0.342661 0.0954646,-0.080874 0.213854,-0.121724 0.355587,-0.121724 0.0975472,0 0.187591,0.0212598 0.269713,0.0629449 0.082122,0.0421024 0.145067,0.0992126 0.188839,0.171748 0.0433543,0.0725354 0.0654488,0.14924 0.0654488,0.230945 0,0.0771181 -0.0208425,0.147571 -0.0625315,0.21135 -0.041685,0.0633622 -0.102965,0.113803 -0.184252,0.151323 0.105882,0.0241772 0.188004,0.0750354 0.246783,0.152154 0.0583622,0.0767047 0.0875433,0.173 0.0875433,0.288472 0,0.156323 -0.0566969,0.288886 -0.170917,0.397689 -0.113803,0.108799 -0.258039,0.162992 -0.432287,0.162992 -0.157157,0 -0.287638,-0.046689 -0.391437,-0.140484 -0.103799,-0.093378 -0.162992,-0.214685 -0.177583,-0.363921zm2.21772 0.472724l-0.219689 0 0 -1.40067c-0.0529409,0.0504409 -0.122142,0.100882 -0.208016,0.151323 -0.0862913,0.0504409 -0.163409,0.088374 -0.231776,0.113386l0 -0.212185c0.122976,-0.0579449 0.230528,-0.127976 0.322654,-0.210098 0.0917087,-0.0825394 0.157157,-0.162161 0.195508,-0.239697l0.141319 0 0 1.79794z"/>
 </g>
 <rect class="fil4" width="6.72" height="6.72"/>
</svg>
